<svg width="401" height="192" viewBox="0 0 401 192" fill="none" xmlns="http://www.w3.org/2000/svg">
<path d="M98.7671 111.28C100.993 121.311 19.406 199.934 12.8129 191.266C12.758 191.194 12.7203 191.111 12.6952 191.024C8.34694 175.91 28.7254 133.089 26.2324 111.15C24.2324 96.1502 -2.76762 97.1502 0.232398 80.6502C3.23241 64.1502 83.7324 -13.8498 85.2324 2.15024C86.7324 18.1502 69.7324 64.1502 72.2324 80.6502C77.2167 98.5937 98.5975 94.1783 98.7318 110.991C98.7326 111.093 98.7449 111.18 98.7671 111.28Z" fill="url(#paint0_linear_3_2)"/>
<path d="M136.333 116.63C133.855 116.63 131.587 116.231 129.529 115.433C127.513 114.593 125.77 113.417 124.3 111.905C122.83 110.351 121.696 108.503 120.898 106.361C120.1 104.219 119.701 101.804 119.701 99.116C119.701 95.546 120.394 92.459 121.78 89.855C123.166 87.251 125.119 85.235 127.639 83.807C130.159 82.379 133.057 81.665 136.333 81.665C138.517 81.665 140.428 81.917 142.066 82.421C143.704 82.925 145.111 83.618 146.287 84.5C147.463 85.34 148.366 86.348 148.996 87.524H149.437L149.752 82.232H159.832V116H149.185V110.582H148.744C147.736 112.43 146.098 113.9 143.83 114.992C141.604 116.084 139.105 116.63 136.333 116.63ZM139.609 108.566C141.583 108.566 143.284 108.188 144.712 107.432C146.182 106.634 147.274 105.584 147.988 104.282C148.744 102.938 149.122 101.468 149.122 99.872V98.234C149.122 96.638 148.744 95.21 147.988 93.95C147.274 92.648 146.182 91.619 144.712 90.863C143.284 90.107 141.583 89.729 139.609 89.729C137.761 89.729 136.144 90.086 134.758 90.8C133.414 91.514 132.343 92.585 131.545 94.013C130.789 95.399 130.411 97.1 130.411 99.116C130.411 101.132 130.789 102.854 131.545 104.282C132.301 105.668 133.372 106.739 134.758 107.495C136.144 108.209 137.761 108.566 139.609 108.566Z" fill="url(#paint1_linear_3_2)"/>
<path d="M166.062 126.521V82.232H176.079L176.394 87.524H176.835C177.843 85.802 179.397 84.395 181.497 83.303C183.597 82.211 186.264 81.665 189.498 81.665C191.976 81.665 194.223 82.085 196.239 82.925C198.255 83.723 199.998 84.878 201.468 86.39C202.938 87.902 204.072 89.729 204.87 91.871C205.668 94.013 206.067 96.428 206.067 99.116C206.067 102.686 205.374 105.773 203.988 108.377C202.602 110.981 200.67 113.018 198.192 114.488C195.714 115.916 192.795 116.63 189.435 116.63C187.587 116.63 185.844 116.378 184.206 115.874C182.61 115.37 181.203 114.677 179.985 113.795C178.767 112.871 177.78 111.8 177.024 110.582H176.646V126.521H166.062ZM186.222 108.566C188.07 108.566 189.666 108.209 191.01 107.495C192.396 106.739 193.467 105.668 194.223 104.282C195.021 102.854 195.42 101.132 195.42 99.116C195.42 97.1 195.042 95.399 194.286 94.013C193.53 92.627 192.459 91.577 191.073 90.863C189.687 90.107 188.07 89.729 186.222 89.729C184.248 89.729 182.526 90.107 181.056 90.863C179.628 91.619 178.536 92.648 177.78 93.95C177.024 95.21 176.646 96.638 176.646 98.234V99.872C176.646 101.048 176.856 102.182 177.276 103.274C177.738 104.324 178.368 105.248 179.166 106.046C180.006 106.844 181.014 107.474 182.19 107.936C183.366 108.356 184.71 108.566 186.222 108.566Z" fill="url(#paint2_linear_3_2)"/>
<path d="M210.913 126.521V82.232H220.93L221.245 87.524H221.686C222.694 85.802 224.248 84.395 226.348 83.303C228.448 82.211 231.115 81.665 234.349 81.665C236.827 81.665 239.074 82.085 241.09 82.925C243.106 83.723 244.849 84.878 246.319 86.39C247.789 87.902 248.923 89.729 249.721 91.871C250.519 94.013 250.918 96.428 250.918 99.116C250.918 102.686 250.225 105.773 248.839 108.377C247.453 110.981 245.521 113.018 243.043 114.488C240.565 115.916 237.646 116.63 234.286 116.63C232.438 116.63 230.695 116.378 229.057 115.874C227.461 115.37 226.054 114.677 224.836 113.795C223.618 112.871 222.631 111.8 221.875 110.582H221.497V126.521H210.913ZM231.073 108.566C232.921 108.566 234.517 108.209 235.861 107.495C237.247 106.739 238.318 105.668 239.074 104.282C239.872 102.854 240.271 101.132 240.271 99.116C240.271 97.1 239.893 95.399 239.137 94.013C238.381 92.627 237.31 91.577 235.924 90.863C234.538 90.107 232.921 89.729 231.073 89.729C229.099 89.729 227.377 90.107 225.907 90.863C224.479 91.619 223.387 92.648 222.631 93.95C221.875 95.21 221.497 96.638 221.497 98.234V99.872C221.497 101.048 221.707 102.182 222.127 103.274C222.589 104.324 223.219 105.248 224.017 106.046C224.857 106.844 225.865 107.474 227.041 107.936C228.217 108.356 229.561 108.566 231.073 108.566Z" fill="url(#paint3_linear_3_2)"/>
<path d="M255.763 116V70.073H266.347V116H255.763Z" fill="url(#paint4_linear_3_2)"/>
<path d="M291.521 116.63C288.455 116.63 285.683 116.252 283.205 115.496C280.727 114.698 278.585 113.543 276.779 112.031C274.973 110.519 273.587 108.692 272.621 106.55C271.655 104.366 271.172 101.888 271.172 99.116C271.172 95.462 272.012 92.333 273.692 89.729C275.414 87.125 277.787 85.13 280.811 83.744C283.877 82.316 287.447 81.602 291.521 81.602C294.545 81.602 297.296 82.001 299.774 82.799C302.294 83.597 304.436 84.752 306.2 86.264C308.006 87.734 309.392 89.561 310.358 91.745C311.324 93.929 311.807 96.386 311.807 99.116C311.807 102.728 310.967 105.857 309.287 108.503C307.607 111.149 305.255 113.165 302.231 114.551C299.207 115.937 295.637 116.63 291.521 116.63ZM291.521 108.503C293.579 108.503 295.322 108.125 296.75 107.369C298.22 106.571 299.333 105.479 300.089 104.093C300.845 102.665 301.223 101.006 301.223 99.116C301.223 97.688 301.013 96.407 300.593 95.273C300.173 94.097 299.543 93.11 298.703 92.312C297.863 91.472 296.834 90.842 295.616 90.422C294.44 89.96 293.075 89.729 291.521 89.729C289.463 89.729 287.699 90.107 286.229 90.863C284.801 91.619 283.709 92.711 282.953 94.139C282.197 95.525 281.819 97.184 281.819 99.116C281.819 100.544 282.029 101.846 282.449 103.022C282.911 104.156 283.541 105.143 284.339 105.983C285.179 106.781 286.187 107.411 287.363 107.873C288.581 108.293 289.967 108.503 291.521 108.503Z" fill="url(#paint5_linear_3_2)"/>
<path d="M335.633 116.63C332.567 116.63 329.795 116.252 327.317 115.496C324.839 114.698 322.697 113.543 320.891 112.031C319.085 110.519 317.699 108.692 316.733 106.55C315.767 104.366 315.284 101.888 315.284 99.116C315.284 95.462 316.124 92.333 317.804 89.729C319.526 87.125 321.899 85.13 324.923 83.744C327.989 82.316 331.559 81.602 335.633 81.602C338.657 81.602 341.408 82.001 343.886 82.799C346.406 83.597 348.548 84.752 350.312 86.264C352.118 87.734 353.504 89.561 354.47 91.745C355.436 93.929 355.919 96.386 355.919 99.116C355.919 102.728 355.079 105.857 353.399 108.503C351.719 111.149 349.367 113.165 346.343 114.551C343.319 115.937 339.749 116.63 335.633 116.63ZM335.633 108.503C337.691 108.503 339.434 108.125 340.862 107.369C342.332 106.571 343.445 105.479 344.201 104.093C344.957 102.665 345.335 101.006 345.335 99.116C345.335 97.688 345.125 96.407 344.705 95.273C344.285 94.097 343.655 93.11 342.815 92.312C341.975 91.472 340.946 90.842 339.728 90.422C338.552 89.96 337.187 89.729 335.633 89.729C333.575 89.729 331.811 90.107 330.341 90.863C328.913 91.619 327.821 92.711 327.065 94.139C326.309 95.525 325.931 97.184 325.931 99.116C325.931 100.544 326.141 101.846 326.561 103.022C327.023 104.156 327.653 105.143 328.451 105.983C329.291 106.781 330.299 107.411 331.475 107.873C332.693 108.293 334.079 108.503 335.633 108.503Z" fill="url(#paint6_linear_3_2)"/>
<path d="M360.845 116V70.073H371.429V95.84L375.587 91.997L387.116 82.232H400.535L384.596 95.588L400.976 116H387.809L379.115 104.849L376.91 101.825L371.429 106.361V116H360.845Z" fill="url(#paint7_linear_3_2)"/>
<defs>
<linearGradient id="paint0_linear_3_2" x1="0" y1="95.9662" x2="400.976" y2="95.9662" gradientUnits="userSpaceOnUse">
<stop stop-color="#F9D423"/>
<stop offset="1" stop-color="#FF4E50"/>
</linearGradient>
<linearGradient id="paint1_linear_3_2" x1="0" y1="95.9662" x2="400.976" y2="95.9662" gradientUnits="userSpaceOnUse">
<stop stop-color="#F9D423"/>
<stop offset="1" stop-color="#FF4E50"/>
</linearGradient>
<linearGradient id="paint2_linear_3_2" x1="0" y1="95.9662" x2="400.976" y2="95.9662" gradientUnits="userSpaceOnUse">
<stop stop-color="#F9D423"/>
<stop offset="1" stop-color="#FF4E50"/>
</linearGradient>
<linearGradient id="paint3_linear_3_2" x1="0" y1="95.9662" x2="400.976" y2="95.9662" gradientUnits="userSpaceOnUse">
<stop stop-color="#F9D423"/>
<stop offset="1" stop-color="#FF4E50"/>
</linearGradient>
<linearGradient id="paint4_linear_3_2" x1="0" y1="95.9662" x2="400.976" y2="95.9662" gradientUnits="userSpaceOnUse">
<stop stop-color="#F9D423"/>
<stop offset="1" stop-color="#FF4E50"/>
</linearGradient>
<linearGradient id="paint5_linear_3_2" x1="0" y1="95.9662" x2="400.976" y2="95.9662" gradientUnits="userSpaceOnUse">
<stop stop-color="#F9D423"/>
<stop offset="1" stop-color="#FF4E50"/>
</linearGradient>
<linearGradient id="paint6_linear_3_2" x1="0" y1="95.9662" x2="400.976" y2="95.9662" gradientUnits="userSpaceOnUse">
<stop stop-color="#F9D423"/>
<stop offset="1" stop-color="#FF4E50"/>
</linearGradient>
<linearGradient id="paint7_linear_3_2" x1="0" y1="95.9662" x2="400.976" y2="95.9662" gradientUnits="userSpaceOnUse">
<stop stop-color="#F9D423"/>
<stop offset="1" stop-color="#FF4E50"/>
</linearGradient>
</defs>
</svg>
